<?xml version="1.0" encoding="UTF-8" standalone="yes"?><svg xmlns="http://www.w3.org/2000/svg" xmlns:xlink="http://www.w3.org/1999/xlink" height="774px" style="width:707px;height:774px;" version="1.1" viewBox="0 0 707 774" width="707px"><defs><filter height="300%" id="f1" width="300%" x="-1" y="-1"><feGaussianBlur result="blurOut" stdDeviation="2.0"/><feColorMatrix in="blurOut" result="blurOut2" type="matrix" values="0 0 0 0 0 0 0 0 0 0 0 0 0 0 0 0 0 0 .4 0"/><feOffset dx="4.0" dy="4.0" in="blurOut2" result="blurOut3"/><feBlend in="SourceGraphic" in2="blurOut3" mode="normal"/></filter></defs><g><polygon fill="#FFFFFF" filter="url(#f1)" points="119,24,164,24,171,46.2969,615,46.2969,615,107,119,107,119,24" style="stroke: #000000; stroke-width: 2.0;"/><line style="stroke: #000000; stroke-width: 2.0;" x1="119" x2="171" y1="46.2969" y2="46.2969"/><text fill="#000000" font-family="sans-serif" font-size="14" font-weight="bold" lengthAdjust="spacingAndGlyphs" textLength="39" x="122" y="39.9951">meta</text><polygon fill="#FFFFFF" filter="url(#f1)" points="22,140,138,140,145,162.2969,700,162.2969,700,767,22,767,22,140" style="stroke: #000000; stroke-width: 2.0;"/><line style="stroke: #000000; stroke-width: 2.0;" x1="22" x2="145" y1="162.2969" y2="162.2969"/><text fill="#000000" font-family="sans-serif" font-size="14" font-weight="bold" lengthAdjust="spacingAndGlyphs" textLength="110" x="25" y="155.9951">meta-barebox</text><rect fill="#FEFECE" filter="url(#f1)" height="32" style="stroke: #A80036; stroke-width: 1.5;" width="113" x="135.5" y="59"/><ellipse cx="150.5" cy="75" fill="#ADD1B2" rx="11" ry="11" style="stroke: #A80036; stroke-width: 1.0;"/><path d="M153.4688,80.6406 Q152.8906,80.9375 152.25,81.0859 Q151.6094,81.2344 150.9063,81.2344 Q148.4063,81.2344 147.0859,79.5859 Q145.7656,77.9375 145.7656,74.8125 Q145.7656,71.6875 147.0859,70.0313 Q148.4063,68.375 150.9063,68.375 Q151.6094,68.375 152.2578,68.5313 Q152.9063,68.6875 153.4688,68.9844 L153.4688,71.7031 Q152.8438,71.125 152.25,70.8516 Q151.6563,70.5781 151.0313,70.5781 Q149.6875,70.5781 149,71.6484 Q148.3125,72.7188 148.3125,74.8125 Q148.3125,76.9063 149,77.9766 Q149.6875,79.0469 151.0313,79.0469 Q151.6563,79.0469 152.25,78.7734 Q152.8438,78.5 153.4688,77.9219 L153.4688,80.6406 Z "/><text fill="#000000" font-family="sans-serif" font-size="12" lengthAdjust="spacingAndGlyphs" textLength="81" x="164.5" y="79.1543">cml1.bbclass</text><rect fill="#FEFECE" filter="url(#f1)" height="32" style="stroke: #A80036; stroke-width: 1.5;" width="125" x="283.5" y="59"/><ellipse cx="298.5" cy="75" fill="#ADD1B2" rx="11" ry="11" style="stroke: #A80036; stroke-width: 1.0;"/><path d="M301.4688,80.6406 Q300.8906,80.9375 300.25,81.0859 Q299.6094,81.2344 298.9063,81.2344 Q296.4063,81.2344 295.0859,79.5859 Q293.7656,77.9375 293.7656,74.8125 Q293.7656,71.6875 295.0859,70.0313 Q296.4063,68.375 298.9063,68.375 Q299.6094,68.375 300.2578,68.5313 Q300.9063,68.6875 301.4688,68.9844 L301.4688,71.7031 Q300.8438,71.125 300.25,70.8516 Q299.6563,70.5781 299.0313,70.5781 Q297.6875,70.5781 297,71.6484 Q296.3125,72.7188 296.3125,74.8125 Q296.3125,76.9063 297,77.9766 Q297.6875,79.0469 299.0313,79.0469 Q299.6563,79.0469 300.25,78.7734 Q300.8438,78.5 301.4688,77.9219 L301.4688,80.6406 Z "/><text fill="#000000" font-family="sans-serif" font-size="12" lengthAdjust="spacingAndGlyphs" textLength="93" x="312.5" y="79.1543">deploy.bbclass</text><rect fill="#FEFECE" filter="url(#f1)" height="32" style="stroke: #A80036; stroke-width: 1.5;" width="155" x="443.5" y="59"/><ellipse cx="458.5" cy="75" fill="#ADD1B2" rx="11" ry="11" style="stroke: #A80036; stroke-width: 1.0;"/><path d="M461.4688,80.6406 Q460.8906,80.9375 460.25,81.0859 Q459.6094,81.2344 458.9063,81.2344 Q456.4063,81.2344 455.0859,79.5859 Q453.7656,77.9375 453.7656,74.8125 Q453.7656,71.6875 455.0859,70.0313 Q456.4063,68.375 458.9063,68.375 Q459.6094,68.375 460.2578,68.5313 Q460.9063,68.6875 461.4688,68.9844 L461.4688,71.7031 Q460.8438,71.125 460.25,70.8516 Q459.6563,70.5781 459.0313,70.5781 Q457.6875,70.5781 457,71.6484 Q456.3125,72.7188 456.3125,74.8125 Q456.3125,76.9063 457,77.9766 Q457.6875,79.0469 459.0313,79.0469 Q459.6563,79.0469 460.25,78.7734 Q460.8438,78.5 461.4688,77.9219 L461.4688,80.6406 Z "/><text fill="#000000" font-family="sans-serif" font-size="12" lengthAdjust="spacingAndGlyphs" textLength="123" x="472.5" y="79.1543">kernel-arch.bbclass</text><rect fill="#FEFECE" filter="url(#f1)" height="273.6797" style="stroke: #A80036; stroke-width: 1.5;" width="177" x="257.5" y="175"/><ellipse cx="279.25" cy="191" fill="#FFFF00" rx="11" ry="11" style="stroke: #A80036; stroke-width: 1.0;"/><path d="M275.1719,186.7656 L275.1719,184.6094 L282.5625,184.6094 L282.5625,186.7656 L280.0938,186.7656 L280.0938,194.8438 L282.5625,194.8438 L282.5625,197 L275.1719,197 L275.1719,194.8438 L277.6406,194.8438 L277.6406,186.7656 L275.1719,186.7656 Z "/><text fill="#000000" font-family="sans-serif" font-size="12" lengthAdjust="spacingAndGlyphs" textLength="130" x="294.75" y="195.1543">barebox-common.inc</text><line style="stroke: #A80036; stroke-width: 1.5;" x1="258.5" x2="433.5" y1="207" y2="207"/><text fill="#000000" font-family="sans-serif" font-size="11" lengthAdjust="spacingAndGlyphs" textLength="102" x="263.5" y="238.0151">BAREBOX_CONFIG</text><text fill="#000000" font-family="sans-serif" font-size="11" lengthAdjust="spacingAndGlyphs" textLength="123" x="263.5" y="250.8198">BAREBOX_IMAGE_SRC</text><line style="stroke: #A80036; stroke-width: 1.0; stroke-dasharray: 1.0,2.0;" x1="258.5" x2="303.5" y1="221.4023" y2="221.4023"/><text fill="#000000" font-family="sans-serif" font-size="11" lengthAdjust="spacingAndGlyphs" textLength="85" x="303.5" y="224.7104">Input Variables</text><line style="stroke: #A80036; stroke-width: 1.0; stroke-dasharray: 1.0,2.0;" x1="388.5" x2="433.5" y1="221.4023" y2="221.4023"/><text fill="#000000" font-family="sans-serif" font-size="11" lengthAdjust="spacingAndGlyphs" textLength="94" x="263.5" y="280.4292">BAREBOX_IMAGE</text><text fill="#000000" font-family="sans-serif" font-size="11" lengthAdjust="spacingAndGlyphs" textLength="161" x="263.5" y="293.2339">BAREBOX_IMAGE_BASENAME</text><text fill="#000000" font-family="sans-serif" font-size="11" lengthAdjust="spacingAndGlyphs" textLength="148" x="263.5" y="306.0386">BAREBOX_IMAGE_SYMLINK</text><text fill="#000000" font-family="sans-serif" font-size="11" lengthAdjust="spacingAndGlyphs" textLength="138" x="263.5" y="318.8433">BAREBOX_IMAGE_SUFFIX</text><text fill="#000000" font-family="sans-serif" font-size="11" lengthAdjust="spacingAndGlyphs" textLength="163" x="263.5" y="331.6479">BAREBOX_IMAGE_SUFFIX_ELF</text><text fill="#000000" font-family="sans-serif" font-size="11" lengthAdjust="spacingAndGlyphs" textLength="165" x="263.5" y="344.4526">BAREBOX_IMAGE_SUFFIX_PER</text><text fill="#000000" font-family="sans-serif" font-size="11" lengthAdjust="spacingAndGlyphs" textLength="162" x="263.5" y="357.2573">BAREBOX_IMAGE_SUFFIX_SPI</text><line style="stroke: #A80036; stroke-width: 1.0; stroke-dasharray: 1.0,2.0;" x1="258.5" x2="298.5" y1="263.8164" y2="263.8164"/><text fill="#000000" font-family="sans-serif" font-size="11" lengthAdjust="spacingAndGlyphs" textLength="95" x="298.5" y="267.1245">Output Variables</text><line style="stroke: #A80036; stroke-width: 1.0; stroke-dasharray: 1.0,2.0;" x1="393.5" x2="433.5" y1="263.8164" y2="263.8164"/><line style="stroke: #A80036; stroke-width: 1.0;" x1="258.5" x2="433.5" y1="363.8516" y2="363.8516"/><rect fill="#F24D5C" height="6" style="stroke: #C82930; stroke-width: 1.0;" width="6" x="265.5" y="372.7539"/><text fill="#000000" font-family="sans-serif" font-size="11" lengthAdjust="spacingAndGlyphs" textLength="59" x="277.5" y="378.062">find_cfgs()</text><rect fill="#F24D5C" height="6" style="stroke: #C82930; stroke-width: 1.0;" width="6" x="265.5" y="385.5586"/><text fill="#000000" font-family="sans-serif" font-size="11" lengthAdjust="spacingAndGlyphs" textLength="60" x="277.5" y="390.8667">find_dtss()</text><rect fill="#F24D5C" height="6" style="stroke: #C82930; stroke-width: 1.0;" width="6" x="265.5" y="398.3633"/><text fill="#000000" font-family="sans-serif" font-size="11" lengthAdjust="spacingAndGlyphs" textLength="68" x="277.5" y="403.6714">apply_cfgs()</text><ellipse cx="268.5" cy="414.168" fill="#84BE84" rx="3" ry="3" style="stroke: #038048; stroke-width: 1.0;"/><text fill="#000000" font-family="sans-serif" font-size="11" lengthAdjust="spacingAndGlyphs" textLength="81" x="277.5" y="416.4761">do_configure()</text><ellipse cx="268.5" cy="426.9727" fill="#84BE84" rx="3" ry="3" style="stroke: #038048; stroke-width: 1.0;"/><text fill="#000000" font-family="sans-serif" font-size="11" lengthAdjust="spacingAndGlyphs" textLength="72" x="277.5" y="429.2808">do_compile()</text><ellipse cx="268.5" cy="439.7773" fill="#84BE84" rx="3" ry="3" style="stroke: #038048; stroke-width: 1.0;"/><text fill="#000000" font-family="sans-serif" font-size="11" lengthAdjust="spacingAndGlyphs" textLength="65" x="277.5" y="442.0854">do_deploy()</text><rect fill="#FEFECE" filter="url(#f1)" height="32" style="stroke: #A80036; stroke-width: 1.5;" width="105" x="107.5" y="568"/><ellipse cx="122.5" cy="584" fill="#FFFF00" rx="11" ry="11" style="stroke: #A80036; stroke-width: 1.0;"/><path d="M118.4219,579.7656 L118.4219,577.6094 L125.8125,577.6094 L125.8125,579.7656 L123.3438,579.7656 L123.3438,587.8438 L125.8125,587.8438 L125.8125,590 L118.4219,590 L118.4219,587.8438 L120.8906,587.8438 L120.8906,579.7656 L118.4219,579.7656 Z "/><text fill="#000000" font-family="sans-serif" font-size="12" lengthAdjust="spacingAndGlyphs" textLength="73" x="136.5" y="588.1543">barebox.inc</text><rect fill="#FEFECE" filter="url(#f1)" height="116.0234" style="stroke: #A80036; stroke-width: 1.5;" width="173" x="259.5" y="526"/><ellipse cx="294.75" cy="542" fill="#FFFF00" rx="11" ry="11" style="stroke: #A80036; stroke-width: 1.0;"/><path d="M290.6719,537.7656 L290.6719,535.6094 L298.0625,535.6094 L298.0625,537.7656 L295.5938,537.7656 L295.5938,545.8438 L298.0625,545.8438 L298.0625,548 L290.6719,548 L290.6719,545.8438 L293.1406,545.8438 L293.1406,537.7656 L290.6719,537.7656 Z "/><text fill="#000000" font-family="sans-serif" font-size="12" lengthAdjust="spacingAndGlyphs" textLength="96" x="313.25" y="546.1543">barebox-pbl.inc</text><line style="stroke: #A80036; stroke-width: 1.5;" x1="260.5" x2="431.5" y1="558" y2="558"/><text fill="#000000" font-family="sans-serif" font-size="11" lengthAdjust="spacingAndGlyphs" textLength="161" x="265.5" y="589.0151">BAREBOX_IMAGE_BASENAME</text><text fill="#000000" font-family="sans-serif" font-size="11" lengthAdjust="spacingAndGlyphs" textLength="138" x="265.5" y="601.8198">BAREBOX_IMAGE_SUFFIX</text><line style="stroke: #A80036; stroke-width: 1.0; stroke-dasharray: 1.0,2.0;" x1="260.5" x2="298.5" y1="572.4023" y2="572.4023"/><text fill="#000000" font-family="sans-serif" font-size="11" lengthAdjust="spacingAndGlyphs" textLength="95" x="298.5" y="575.7104">Output Variables</text><line style="stroke: #A80036; stroke-width: 1.0; stroke-dasharray: 1.0,2.0;" x1="393.5" x2="431.5" y1="572.4023" y2="572.4023"/><line style="stroke: #A80036; stroke-width: 1.0;" x1="260.5" x2="431.5" y1="608.4141" y2="608.4141"/><rect fill="#F24D5C" height="6" style="stroke: #C82930; stroke-width: 1.0;" width="6" x="267.5" y="617.3164"/><text fill="#000000" font-family="sans-serif" font-size="11" lengthAdjust="spacingAndGlyphs" textLength="140" x="279.5" y="622.6245">get_extra_image_name()</text><ellipse cx="270.5" cy="633.1211" fill="#84BE84" rx="3" ry="3" style="stroke: #038048; stroke-width: 1.0;"/><text fill="#000000" font-family="sans-serif" font-size="11" lengthAdjust="spacingAndGlyphs" textLength="113" x="279.5" y="635.4292">do_deploy_append()</text><rect fill="#FEFECE" filter="url(#f1)" height="60.8047" style="stroke: #A80036; stroke-width: 1.5;" width="135" x="490.5" y="553.5"/><ellipse cx="505.5" cy="569.5" fill="#FFFF00" rx="11" ry="11" style="stroke: #A80036; stroke-width: 1.0;"/><path d="M501.4219,565.2656 L501.4219,563.1094 L508.8125,563.1094 L508.8125,565.2656 L506.3438,565.2656 L506.3438,573.3438 L508.8125,573.3438 L508.8125,575.5 L501.4219,575.5 L501.4219,573.3438 L503.8906,573.3438 L503.8906,565.2656 L501.4219,565.2656 Z "/><text fill="#000000" font-family="sans-serif" font-size="12" lengthAdjust="spacingAndGlyphs" textLength="103" x="519.5" y="573.6543">barebox-utils.inc</text><line style="stroke: #A80036; stroke-width: 1.5;" x1="491.5" x2="624.5" y1="585.5" y2="585.5"/><line style="stroke: #A80036; stroke-width: 1.5;" x1="491.5" x2="624.5" y1="593.5" y2="593.5"/><ellipse cx="501.5" cy="605.4023" fill="#84BE84" rx="3" ry="3" style="stroke: #038048; stroke-width: 1.0;"/><text fill="#000000" font-family="sans-serif" font-size="11" lengthAdjust="spacingAndGlyphs" textLength="62" x="510.5" y="607.7104">do_install()</text><rect fill="#FEFECE" filter="url(#f1)" height="32" style="stroke: #A80036; stroke-width: 1.5;" width="174" x="38" y="719"/><ellipse cx="53" cy="735" fill="#ADD8E6" rx="11" ry="11" style="stroke: #A80036; stroke-width: 1.0;"/><path d="M54.2031,735.1406 Q54.5625,735.2188 54.8359,735.4922 Q55.1094,735.7656 55.5,736.5469 L57.7344,741 L55.0469,741 L53.5469,737.875 Q53.4844,737.7344 53.375,737.5 Q52.7188,736.1094 51.8281,736.1094 L51.0469,736.1094 L51.0469,741 L48.6094,741 L48.6094,728.6094 L52.1406,728.6094 Q54.5313,728.6094 55.5703,729.4531 Q56.6094,730.2969 56.6094,732.2031 Q56.6094,733.4844 55.9922,734.2422 Q55.375,735 54.2031,735.1406 Z M51.0469,730.6719 L51.0469,734.0469 L52.2031,734.0469 Q53.2188,734.0469 53.6484,733.6484 Q54.0781,733.25 54.0781,732.3438 Q54.0781,731.4531 53.6484,731.0625 Q53.2188,730.6719 52.2031,730.6719 L51.0469,730.6719 Z "/><text fill="#000000" font-family="sans-serif" font-size="12" lengthAdjust="spacingAndGlyphs" textLength="142" x="67" y="739.1543">barebox_&lt;version&gt;.bb</text><rect fill="#FEFECE" filter="url(#f1)" height="32" style="stroke: #A80036; stroke-width: 1.5;" width="197" x="247.5" y="719"/><ellipse cx="262.5" cy="735" fill="#ADD8E6" rx="11" ry="11" style="stroke: #A80036; stroke-width: 1.0;"/><path d="M263.7031,735.1406 Q264.0625,735.2188 264.3359,735.4922 Q264.6094,735.7656 265,736.5469 L267.2344,741 L264.5469,741 L263.0469,737.875 Q262.9844,737.7344 262.875,737.5 Q262.2188,736.1094 261.3281,736.1094 L260.5469,736.1094 L260.5469,741 L258.1094,741 L258.1094,728.6094 L261.6406,728.6094 Q264.0313,728.6094 265.0703,729.4531 Q266.1094,730.2969 266.1094,732.2031 Q266.1094,733.4844 265.4922,734.2422 Q264.875,735 263.7031,735.1406 Z M260.5469,730.6719 L260.5469,734.0469 L261.7031,734.0469 Q262.7188,734.0469 263.1484,733.6484 Q263.5781,733.25 263.5781,732.3438 Q263.5781,731.4531 263.1484,731.0625 Q262.7188,730.6719 261.7031,730.6719 L260.5469,730.6719 Z "/><text fill="#000000" font-family="sans-serif" font-size="12" lengthAdjust="spacingAndGlyphs" textLength="165" x="276.5" y="739.1543">barebox-pbl_&lt;version&gt;.bb</text><rect fill="#FEFECE" filter="url(#f1)" height="32" style="stroke: #A80036; stroke-width: 1.5;" width="204" x="480" y="719"/><ellipse cx="495" cy="735" fill="#ADD8E6" rx="11" ry="11" style="stroke: #A80036; stroke-width: 1.0;"/><path d="M496.2031,735.1406 Q496.5625,735.2188 496.8359,735.4922 Q497.1094,735.7656 497.5,736.5469 L499.7344,741 L497.0469,741 L495.5469,737.875 Q495.4844,737.7344 495.375,737.5 Q494.7188,736.1094 493.8281,736.1094 L493.0469,736.1094 L493.0469,741 L490.6094,741 L490.6094,728.6094 L494.1406,728.6094 Q496.5313,728.6094 497.5703,729.4531 Q498.6094,730.2969 498.6094,732.2031 Q498.6094,733.4844 497.9922,734.2422 Q497.375,735 496.2031,735.1406 Z M493.0469,730.6719 L493.0469,734.0469 L494.2031,734.0469 Q495.2188,734.0469 495.6484,733.6484 Q496.0781,733.25 496.0781,732.3438 Q496.0781,731.4531 495.6484,731.0625 Q495.2188,730.6719 494.2031,730.6719 L493.0469,730.6719 Z "/><text fill="#000000" font-family="sans-serif" font-size="12" lengthAdjust="spacingAndGlyphs" textLength="172" x="509" y="739.1543">barebox-utils_&lt;version&gt;.bb</text><path d="M254.33,446.069 C220.877,494.631 187.194,543.526 170.601,567.612 " fill="none" style="stroke: #A80036; stroke-width: 1.0;"/><polygon fill="#A80036" points="257.358,441.674,248.9595,446.8185,254.5225,445.7922,255.5487,451.3552,257.358,441.674" style="stroke: #A80036; stroke-width: 1.0;"/><text fill="#000000" font-family="sans-serif" font-size="13" lengthAdjust="spacingAndGlyphs" textLength="45" x="232" y="492.0669">require</text><path d="M346,454.271 C346,479.682 346,504.795 346,526 " fill="none" style="stroke: #A80036; stroke-width: 1.0;"/><polygon fill="#A80036" points="346,449.187,342,458.187,346,454.187,350,458.187,346,449.187" style="stroke: #A80036; stroke-width: 1.0;"/><text fill="#000000" font-family="sans-serif" font-size="13" lengthAdjust="spacingAndGlyphs" textLength="45" x="347" y="492.0669">require</text><path d="M437.897,430.038 C473.507,475.391 511.28,523.498 534.75,553.39 " fill="none" style="stroke: #A80036; stroke-width: 1.0;"/><polygon fill="#A80036" points="434.679,425.94,437.0897,435.4893,437.7663,429.873,443.3825,430.5496,434.679,425.94" style="stroke: #A80036; stroke-width: 1.0;"/><text fill="#000000" font-family="sans-serif" font-size="13" lengthAdjust="spacingAndGlyphs" textLength="45" x="490" y="492.0669">require</text><path d="M155.284,605.078 C148.184,635.304 134.906,691.8277 128.558,718.8531 " fill="none" style="stroke: #A80036; stroke-width: 1.0;"/><polygon fill="#A80036" points="156.451,600.107,150.4979,607.9531,155.307,604.9744,158.2857,609.7835,156.451,600.107" style="stroke: #A80036; stroke-width: 1.0;"/><text fill="#000000" font-family="sans-serif" font-size="13" lengthAdjust="spacingAndGlyphs" textLength="45" x="141" y="685.0669">require</text><path d="M346,647.387 C346,673.571 346,701.8071 346,718.6852 " fill="none" style="stroke: #A80036; stroke-width: 1.0;"/><polygon fill="#A80036" points="346,642.181,342,651.181,346,647.181,350,651.181,346,642.181" style="stroke: #A80036; stroke-width: 1.0;"/><text fill="#000000" font-family="sans-serif" font-size="13" lengthAdjust="spacingAndGlyphs" textLength="45" x="347" y="685.0669">require</text><path d="M563.653,620.094 C568.699,651.424 575.848,695.8088 579.556,718.8293 " fill="none" style="stroke: #A80036; stroke-width: 1.0;"/><polygon fill="#A80036" points="562.799,614.794,560.2824,624.3159,563.5948,619.7303,568.1805,623.0426,562.799,614.794" style="stroke: #A80036; stroke-width: 1.0;"/><text fill="#000000" font-family="sans-serif" font-size="13" lengthAdjust="spacingAndGlyphs" textLength="45" x="575" y="685.0669">require</text><path d="M212.968,107.996 C224.935,126.258 240.84,150.529 257.48,175.921 " fill="none" style="stroke: #A80036; stroke-width: 1.0;"/><polygon fill="none" points="206.975,111.623,201.868,91.058,218.685,103.949,206.975,111.623" style="stroke: #A80036; stroke-width: 1.0;"/><path d="M346,111.28 C346,128.831 346,151.287 346,174.769 " fill="none" style="stroke: #A80036; stroke-width: 1.0;"/><polygon fill="none" points="339,111.058,346,91.058,353,111.058,339,111.058" style="stroke: #A80036; stroke-width: 1.0;"/><path d="M497.688,107.304 C481.226,129.411 458.026,160.565 434.711,191.874 " fill="none" style="stroke: #A80036; stroke-width: 1.0;"/><polygon fill="none" points="492.227,102.918,509.787,91.058,503.456,111.28,492.227,102.918" style="stroke: #A80036; stroke-width: 1.0;"/></g></svg>