<?xml version="1.0" encoding="UTF-8" standalone="yes"?><svg xmlns="http://www.w3.org/2000/svg" xmlns:xlink="http://www.w3.org/1999/xlink" height="867px" style="width:694px;height:867px;" version="1.1" viewBox="0 0 694 867" width="694px"><defs><filter height="300%" id="f1" width="300%" x="-1" y="-1"><feGaussianBlur result="blurOut" stdDeviation="2.0"/><feColorMatrix in="blurOut" result="blurOut2" type="matrix" values="0 0 0 0 0 0 0 0 0 0 0 0 0 0 0 0 0 0 .4 0"/><feOffset dx="4.0" dy="4.0" in="blurOut2" result="blurOut3"/><feBlend in="SourceGraphic" in2="blurOut3" mode="normal"/></filter></defs><g><polygon fill="#FFFFFF" filter="url(#f1)" points="118,24,165,24,172,46.2969,600,46.2969,600,107,118,107,118,24" style="stroke: #000000; stroke-width: 2.0;"/><line style="stroke: #000000; stroke-width: 2.0;" x1="118" x2="172" y1="46.2969" y2="46.2969"/><text fill="#000000" font-family="sans-serif" font-size="14" font-weight="bold" lengthAdjust="spacingAndGlyphs" textLength="41" x="122" y="38.9951">meta</text><polygon fill="#FFFFFF" filter="url(#f1)" points="22,140,140,140,147,162.2969,687,162.2969,687,860,22,860,22,140" style="stroke: #000000; stroke-width: 2.0;"/><line style="stroke: #000000; stroke-width: 2.0;" x1="22" x2="147" y1="162.2969" y2="162.2969"/><text fill="#000000" font-family="sans-serif" font-size="14" font-weight="bold" lengthAdjust="spacingAndGlyphs" textLength="112" x="26" y="154.9951">meta-barebox</text><rect fill="#FEFECE" filter="url(#f1)" height="32" style="stroke: #A80036; stroke-width: 1.5;" width="111" x="133.5" y="59"/><ellipse cx="148.5" cy="75" fill="#ADD1B2" rx="11" ry="11" style="stroke: #A80036; stroke-width: 1.0;"/><path d="M151.4688,80.6406 Q150.8906,80.9375 150.25,81.0859 Q149.6094,81.2344 148.9063,81.2344 Q146.4063,81.2344 145.0859,79.5859 Q143.7656,77.9375 143.7656,74.8125 Q143.7656,71.6875 145.0859,70.0313 Q146.4063,68.375 148.9063,68.375 Q149.6094,68.375 150.2578,68.5313 Q150.9063,68.6875 151.4688,68.9844 L151.4688,71.7031 Q150.8438,71.125 150.25,70.8516 Q149.6563,70.5781 149.0313,70.5781 Q147.6875,70.5781 147,71.6484 Q146.3125,72.7188 146.3125,74.8125 Q146.3125,76.9063 147,77.9766 Q147.6875,79.0469 149.0313,79.0469 Q149.6563,79.0469 150.25,78.7734 Q150.8438,78.5 151.4688,77.9219 L151.4688,80.6406 Z "/><text fill="#000000" font-family="sans-serif" font-size="12" lengthAdjust="spacingAndGlyphs" textLength="79" x="162.5" y="79.1543">cml1.bbclass</text><rect fill="#FEFECE" filter="url(#f1)" height="32" style="stroke: #A80036; stroke-width: 1.5;" width="121" x="279.5" y="59"/><ellipse cx="294.5" cy="75" fill="#ADD1B2" rx="11" ry="11" style="stroke: #A80036; stroke-width: 1.0;"/><path d="M297.4688,80.6406 Q296.8906,80.9375 296.25,81.0859 Q295.6094,81.2344 294.9063,81.2344 Q292.4063,81.2344 291.0859,79.5859 Q289.7656,77.9375 289.7656,74.8125 Q289.7656,71.6875 291.0859,70.0313 Q292.4063,68.375 294.9063,68.375 Q295.6094,68.375 296.2578,68.5313 Q296.9063,68.6875 297.4688,68.9844 L297.4688,71.7031 Q296.8438,71.125 296.25,70.8516 Q295.6563,70.5781 295.0313,70.5781 Q293.6875,70.5781 293,71.6484 Q292.3125,72.7188 292.3125,74.8125 Q292.3125,76.9063 293,77.9766 Q293.6875,79.0469 295.0313,79.0469 Q295.6563,79.0469 296.25,78.7734 Q296.8438,78.5 297.4688,77.9219 L297.4688,80.6406 Z "/><text fill="#000000" font-family="sans-serif" font-size="12" lengthAdjust="spacingAndGlyphs" textLength="89" x="308.5" y="79.1543">deploy.bbclass</text><rect fill="#FEFECE" filter="url(#f1)" height="32" style="stroke: #A80036; stroke-width: 1.5;" width="149" x="435.5" y="59"/><ellipse cx="450.5" cy="75" fill="#ADD1B2" rx="11" ry="11" style="stroke: #A80036; stroke-width: 1.0;"/><path d="M453.4688,80.6406 Q452.8906,80.9375 452.25,81.0859 Q451.6094,81.2344 450.9063,81.2344 Q448.4063,81.2344 447.0859,79.5859 Q445.7656,77.9375 445.7656,74.8125 Q445.7656,71.6875 447.0859,70.0313 Q448.4063,68.375 450.9063,68.375 Q451.6094,68.375 452.2578,68.5313 Q452.9063,68.6875 453.4688,68.9844 L453.4688,71.7031 Q452.8438,71.125 452.25,70.8516 Q451.6563,70.5781 451.0313,70.5781 Q449.6875,70.5781 449,71.6484 Q448.3125,72.7188 448.3125,74.8125 Q448.3125,76.9063 449,77.9766 Q449.6875,79.0469 451.0313,79.0469 Q451.6563,79.0469 452.25,78.7734 Q452.8438,78.5 453.4688,77.9219 L453.4688,80.6406 Z "/><text fill="#000000" font-family="sans-serif" font-size="12" lengthAdjust="spacingAndGlyphs" textLength="117" x="464.5" y="79.1543">kernel-arch.bbclass</text><rect fill="#FEFECE" filter="url(#f1)" height="273.6797" style="stroke: #A80036; stroke-width: 1.5;" width="182" x="249" y="175"/><ellipse cx="287.4" cy="191" fill="#ADD1B2" rx="11" ry="11" style="stroke: #A80036; stroke-width: 1.0;"/><path d="M290.3688,196.6406 Q289.7906,196.9375 289.15,197.0859 Q288.5094,197.2344 287.8063,197.2344 Q285.3063,197.2344 283.9859,195.5859 Q282.6656,193.9375 282.6656,190.8125 Q282.6656,187.6875 283.9859,186.0313 Q285.3063,184.375 287.8063,184.375 Q288.5094,184.375 289.1578,184.5313 Q289.8063,184.6875 290.3688,184.9844 L290.3688,187.7031 Q289.7438,187.125 289.15,186.8516 Q288.5563,186.5781 287.9313,186.5781 Q286.5875,186.5781 285.9,187.6484 Q285.2125,188.7188 285.2125,190.8125 Q285.2125,192.9063 285.9,193.9766 Q286.5875,195.0469 287.9313,195.0469 Q288.5563,195.0469 289.15,194.7734 Q289.7438,194.5 290.3688,193.9219 L290.3688,196.6406 Z "/><text fill="#000000" font-family="sans-serif" font-size="12" lengthAdjust="spacingAndGlyphs" textLength="98" x="306.6" y="195.1543">barebox.bbclass</text><line style="stroke: #A80036; stroke-width: 1.5;" x1="250" x2="430" y1="207" y2="207"/><text fill="#000000" font-family="sans-serif" font-size="11" lengthAdjust="spacingAndGlyphs" textLength="105" x="255" y="238.0151">BAREBOX_CONFIG</text><text fill="#000000" font-family="sans-serif" font-size="11" lengthAdjust="spacingAndGlyphs" textLength="127" x="255" y="250.8198">BAREBOX_IMAGE_SRC</text><line style="stroke: #A80036; stroke-width: 1.0; stroke-dasharray: 1.0,2.0;" x1="250" x2="297.5" y1="221.4023" y2="221.4023"/><text fill="#000000" font-family="sans-serif" font-size="11" lengthAdjust="spacingAndGlyphs" textLength="85" x="297.5" y="224.7104">Input Variables</text><line style="stroke: #A80036; stroke-width: 1.0; stroke-dasharray: 1.0,2.0;" x1="382.5" x2="430" y1="221.4023" y2="221.4023"/><text fill="#000000" font-family="sans-serif" font-size="11" lengthAdjust="spacingAndGlyphs" textLength="98" x="255" y="280.4292">BAREBOX_IMAGE</text><text fill="#000000" font-family="sans-serif" font-size="11" lengthAdjust="spacingAndGlyphs" textLength="166" x="255" y="293.2339">BAREBOX_IMAGE_BASENAME</text><text fill="#000000" font-family="sans-serif" font-size="11" lengthAdjust="spacingAndGlyphs" textLength="151" x="255" y="306.0386">BAREBOX_IMAGE_SYMLINK</text><text fill="#000000" font-family="sans-serif" font-size="11" lengthAdjust="spacingAndGlyphs" textLength="142" x="255" y="318.8433">BAREBOX_IMAGE_SUFFIX</text><text fill="#000000" font-family="sans-serif" font-size="11" lengthAdjust="spacingAndGlyphs" textLength="167" x="255" y="331.6479">BAREBOX_IMAGE_SUFFIX_ELF</text><text fill="#000000" font-family="sans-serif" font-size="11" lengthAdjust="spacingAndGlyphs" textLength="170" x="255" y="344.4526">BAREBOX_IMAGE_SUFFIX_PER</text><text fill="#000000" font-family="sans-serif" font-size="11" lengthAdjust="spacingAndGlyphs" textLength="165" x="255" y="357.2573">BAREBOX_IMAGE_SUFFIX_SPI</text><line style="stroke: #A80036; stroke-width: 1.0; stroke-dasharray: 1.0,2.0;" x1="250" x2="292.5" y1="263.8164" y2="263.8164"/><text fill="#000000" font-family="sans-serif" font-size="11" lengthAdjust="spacingAndGlyphs" textLength="95" x="292.5" y="267.1245">Output Variables</text><line style="stroke: #A80036; stroke-width: 1.0; stroke-dasharray: 1.0,2.0;" x1="387.5" x2="430" y1="263.8164" y2="263.8164"/><line style="stroke: #A80036; stroke-width: 1.0;" x1="250" x2="430" y1="363.8516" y2="363.8516"/><rect fill="#F24D5C" height="6" style="stroke: #C82930; stroke-width: 1.0;" width="6" x="257" y="372.7539"/><text fill="#000000" font-family="sans-serif" font-size="11" lengthAdjust="spacingAndGlyphs" textLength="58" x="269" y="378.062">find_cfgs()</text><rect fill="#F24D5C" height="6" style="stroke: #C82930; stroke-width: 1.0;" width="6" x="257" y="385.5586"/><text fill="#000000" font-family="sans-serif" font-size="11" lengthAdjust="spacingAndGlyphs" textLength="58" x="269" y="390.8667">find_dtss()</text><rect fill="#F24D5C" height="6" style="stroke: #C82930; stroke-width: 1.0;" width="6" x="257" y="398.3633"/><text fill="#000000" font-family="sans-serif" font-size="11" lengthAdjust="spacingAndGlyphs" textLength="68" x="269" y="403.6714">apply_cfgs()</text><ellipse cx="260" cy="414.168" fill="#84BE84" rx="3" ry="3" style="stroke: #038048; stroke-width: 1.0;"/><text fill="#000000" font-family="sans-serif" font-size="11" lengthAdjust="spacingAndGlyphs" textLength="81" x="269" y="416.4761">do_configure()</text><ellipse cx="260" cy="426.9727" fill="#84BE84" rx="3" ry="3" style="stroke: #038048; stroke-width: 1.0;"/><text fill="#000000" font-family="sans-serif" font-size="11" lengthAdjust="spacingAndGlyphs" textLength="72" x="269" y="429.2808">do_compile()</text><ellipse cx="260" cy="439.7773" fill="#84BE84" rx="3" ry="3" style="stroke: #038048; stroke-width: 1.0;"/><text fill="#000000" font-family="sans-serif" font-size="11" lengthAdjust="spacingAndGlyphs" textLength="66" x="269" y="442.0854">do_deploy()</text><rect fill="#FEFECE" filter="url(#f1)" height="32" style="stroke: #A80036; stroke-width: 1.5;" width="160" x="260" y="510"/><ellipse cx="275" cy="526" fill="#FFFF00" rx="11" ry="11" style="stroke: #A80036; stroke-width: 1.0;"/><path d="M271.4219,521.7656 L271.4219,519.6094 L278.8125,519.6094 L278.8125,521.7656 L276.3438,521.7656 L276.3438,529.8438 L278.8125,529.8438 L278.8125,532 L271.4219,532 L271.4219,529.8438 L273.8906,529.8438 L273.8906,521.7656 L271.4219,521.7656 Z "/><text fill="#000000" font-family="sans-serif" font-size="12" lengthAdjust="spacingAndGlyphs" textLength="128" x="289" y="530.1543">barebox-common.inc</text><rect fill="#FEFECE" filter="url(#f1)" height="32" style="stroke: #A80036; stroke-width: 1.5;" width="103" x="101.5" y="661"/><ellipse cx="116.5" cy="677" fill="#FFFF00" rx="11" ry="11" style="stroke: #A80036; stroke-width: 1.0;"/><path d="M112.9219,672.7656 L112.9219,670.6094 L120.3125,670.6094 L120.3125,672.7656 L117.8438,672.7656 L117.8438,680.8438 L120.3125,680.8438 L120.3125,683 L112.9219,683 L112.9219,680.8438 L115.3906,680.8438 L115.3906,672.7656 L112.9219,672.7656 Z "/><text fill="#000000" font-family="sans-serif" font-size="12" lengthAdjust="spacingAndGlyphs" textLength="71" x="130.5" y="681.1543">barebox.inc</text><rect fill="#FEFECE" filter="url(#f1)" height="116.0234" style="stroke: #A80036; stroke-width: 1.5;" width="178" x="251" y="619"/><ellipse cx="289.4" cy="635" fill="#FFFF00" rx="11" ry="11" style="stroke: #A80036; stroke-width: 1.0;"/><path d="M285.8219,630.7656 L285.8219,628.6094 L293.2125,628.6094 L293.2125,630.7656 L290.7438,630.7656 L290.7438,638.8438 L293.2125,638.8438 L293.2125,641 L285.8219,641 L285.8219,638.8438 L288.2906,638.8438 L288.2906,630.7656 L285.8219,630.7656 Z "/><text fill="#000000" font-family="sans-serif" font-size="12" lengthAdjust="spacingAndGlyphs" textLength="94" x="308.6" y="639.1543">barebox-pbl.inc</text><line style="stroke: #A80036; stroke-width: 1.5;" x1="252" x2="428" y1="651" y2="651"/><text fill="#000000" font-family="sans-serif" font-size="11" lengthAdjust="spacingAndGlyphs" textLength="166" x="257" y="682.0151">BAREBOX_IMAGE_BASENAME</text><text fill="#000000" font-family="sans-serif" font-size="11" lengthAdjust="spacingAndGlyphs" textLength="142" x="257" y="694.8198">BAREBOX_IMAGE_SUFFIX</text><line style="stroke: #A80036; stroke-width: 1.0; stroke-dasharray: 1.0,2.0;" x1="252" x2="292.5" y1="665.4023" y2="665.4023"/><text fill="#000000" font-family="sans-serif" font-size="11" lengthAdjust="spacingAndGlyphs" textLength="95" x="292.5" y="668.7104">Output Variables</text><line style="stroke: #A80036; stroke-width: 1.0; stroke-dasharray: 1.0,2.0;" x1="387.5" x2="428" y1="665.4023" y2="665.4023"/><line style="stroke: #A80036; stroke-width: 1.0;" x1="252" x2="428" y1="701.4141" y2="701.4141"/><rect fill="#F24D5C" height="6" style="stroke: #C82930; stroke-width: 1.0;" width="6" x="259" y="710.3164"/><text fill="#000000" font-family="sans-serif" font-size="11" lengthAdjust="spacingAndGlyphs" textLength="141" x="271" y="715.6245">get_extra_image_name()</text><ellipse cx="262" cy="726.1211" fill="#84BE84" rx="3" ry="3" style="stroke: #038048; stroke-width: 1.0;"/><text fill="#000000" font-family="sans-serif" font-size="11" lengthAdjust="spacingAndGlyphs" textLength="114" x="271" y="728.4292">do_deploy_append()</text><rect fill="#FEFECE" filter="url(#f1)" height="60.8047" style="stroke: #A80036; stroke-width: 1.5;" width="132" x="484" y="646.5"/><ellipse cx="499" cy="662.5" fill="#FFFF00" rx="11" ry="11" style="stroke: #A80036; stroke-width: 1.0;"/><path d="M495.4219,658.2656 L495.4219,656.1094 L502.8125,656.1094 L502.8125,658.2656 L500.3438,658.2656 L500.3438,666.3438 L502.8125,666.3438 L502.8125,668.5 L495.4219,668.5 L495.4219,666.3438 L497.8906,666.3438 L497.8906,658.2656 L495.4219,658.2656 Z "/><text fill="#000000" font-family="sans-serif" font-size="12" lengthAdjust="spacingAndGlyphs" textLength="100" x="513" y="666.6543">barebox-utils.inc</text><line style="stroke: #A80036; stroke-width: 1.5;" x1="485" x2="615" y1="678.5" y2="678.5"/><line style="stroke: #A80036; stroke-width: 1.5;" x1="485" x2="615" y1="686.5" y2="686.5"/><ellipse cx="495" cy="698.4023" fill="#84BE84" rx="3" ry="3" style="stroke: #038048; stroke-width: 1.0;"/><text fill="#000000" font-family="sans-serif" font-size="11" lengthAdjust="spacingAndGlyphs" textLength="61" x="504" y="700.7104">do_install()</text><rect fill="#FEFECE" filter="url(#f1)" height="32" style="stroke: #A80036; stroke-width: 1.5;" width="170" x="38" y="812"/><ellipse cx="53" cy="828" fill="#ADD8E6" rx="11" ry="11" style="stroke: #A80036; stroke-width: 1.0;"/><path d="M54.2031,828.1406 Q54.5625,828.2188 54.8359,828.4922 Q55.1094,828.7656 55.5,829.5469 L57.7344,834 L55.0469,834 L53.5469,830.875 Q53.4844,830.7344 53.375,830.5 Q52.7188,829.1094 51.8281,829.1094 L51.0469,829.1094 L51.0469,834 L48.6094,834 L48.6094,821.6094 L52.1406,821.6094 Q54.5313,821.6094 55.5703,822.4531 Q56.6094,823.2969 56.6094,825.2031 Q56.6094,826.4844 55.9922,827.2422 Q55.375,828 54.2031,828.1406 Z M51.0469,823.6719 L51.0469,827.0469 L52.2031,827.0469 Q53.2188,827.0469 53.6484,826.6484 Q54.0781,826.25 54.0781,825.3438 Q54.0781,824.4531 53.6484,824.0625 Q53.2188,823.6719 52.2031,823.6719 L51.0469,823.6719 Z "/><text fill="#000000" font-family="sans-serif" font-size="12" lengthAdjust="spacingAndGlyphs" textLength="138" x="67" y="832.1543">barebox_&lt;version&gt;.bb</text><rect fill="#FEFECE" filter="url(#f1)" height="32" style="stroke: #A80036; stroke-width: 1.5;" width="193" x="243.5" y="812"/><ellipse cx="258.5" cy="828" fill="#ADD8E6" rx="11" ry="11" style="stroke: #A80036; stroke-width: 1.0;"/><path d="M259.7031,828.1406 Q260.0625,828.2188 260.3359,828.4922 Q260.6094,828.7656 261,829.5469 L263.2344,834 L260.5469,834 L259.0469,830.875 Q258.9844,830.7344 258.875,830.5 Q258.2188,829.1094 257.3281,829.1094 L256.5469,829.1094 L256.5469,834 L254.1094,834 L254.1094,821.6094 L257.6406,821.6094 Q260.0313,821.6094 261.0703,822.4531 Q262.1094,823.2969 262.1094,825.2031 Q262.1094,826.4844 261.4922,827.2422 Q260.875,828 259.7031,828.1406 Z M256.5469,823.6719 L256.5469,827.0469 L257.7031,827.0469 Q258.7188,827.0469 259.1484,826.6484 Q259.5781,826.25 259.5781,825.3438 Q259.5781,824.4531 259.1484,824.0625 Q258.7188,823.6719 257.7031,823.6719 L256.5469,823.6719 Z "/><text fill="#000000" font-family="sans-serif" font-size="12" lengthAdjust="spacingAndGlyphs" textLength="161" x="272.5" y="832.1543">barebox-pbl_&lt;version&gt;.bb</text><rect fill="#FEFECE" filter="url(#f1)" height="32" style="stroke: #A80036; stroke-width: 1.5;" width="199" x="471.5" y="812"/><ellipse cx="486.5" cy="828" fill="#ADD8E6" rx="11" ry="11" style="stroke: #A80036; stroke-width: 1.0;"/><path d="M487.7031,828.1406 Q488.0625,828.2188 488.3359,828.4922 Q488.6094,828.7656 489,829.5469 L491.2344,834 L488.5469,834 L487.0469,830.875 Q486.9844,830.7344 486.875,830.5 Q486.2188,829.1094 485.3281,829.1094 L484.5469,829.1094 L484.5469,834 L482.1094,834 L482.1094,821.6094 L485.6406,821.6094 Q488.0313,821.6094 489.0703,822.4531 Q490.1094,823.2969 490.1094,825.2031 Q490.1094,826.4844 489.4922,827.2422 Q488.875,828 487.7031,828.1406 Z M484.5469,823.6719 L484.5469,827.0469 L485.7031,827.0469 Q486.7188,827.0469 487.1484,826.6484 Q487.5781,826.25 487.5781,825.3438 Q487.5781,824.4531 487.1484,824.0625 Q486.7188,823.6719 485.7031,823.6719 L484.5469,823.6719 Z "/><text fill="#000000" font-family="sans-serif" font-size="12" lengthAdjust="spacingAndGlyphs" textLength="167" x="500.5" y="832.1543">barebox-utils_&lt;version&gt;.bb</text><path d="M317.11,545.239 C279.814,574.955 206.628,633.269 172.01,660.853 " fill="none" style="stroke: #A80036; stroke-width: 1.0;"/><polygon fill="#A80036" points="321.04,542.107,311.5086,544.5875,317.1297,545.223,316.4942,550.844,321.04,542.107" style="stroke: #A80036; stroke-width: 1.0;"/><text fill="#000000" font-family="sans-serif" font-size="13" lengthAdjust="spacingAndGlyphs" textLength="46" x="280" y="585.0669">require</text><path d="M340,547.495 C340,565.882 340,593.754 340,618.846 " fill="none" style="stroke: #A80036; stroke-width: 1.0;"/><polygon fill="#A80036" points="340,542.107,336,551.107,340,547.107,344,551.107,340,542.107" style="stroke: #A80036; stroke-width: 1.0;"/><text fill="#000000" font-family="sans-serif" font-size="13" lengthAdjust="spacingAndGlyphs" textLength="46" x="341" y="585.0669">require</text><path d="M365.463,545.067 C400.884,570.199 465.465,616.021 508.058,646.241 " fill="none" style="stroke: #A80036; stroke-width: 1.0;"/><polygon fill="#A80036" points="361.292,542.107,366.3174,550.5773,365.3698,545.0003,370.9467,544.0528,361.292,542.107" style="stroke: #A80036; stroke-width: 1.0;"/><text fill="#000000" font-family="sans-serif" font-size="13" lengthAdjust="spacingAndGlyphs" textLength="46" x="427" y="585.0669">require</text><path d="M148.957,698.078 C142.872,728.304 131.491,784.8277 126.05,811.8531 " fill="none" style="stroke: #A80036; stroke-width: 1.0;"/><polygon fill="#A80036" points="149.958,693.107,144.2598,701.1401,148.9708,698.0086,152.1024,702.7196,149.958,693.107" style="stroke: #A80036; stroke-width: 1.0;"/><text fill="#000000" font-family="sans-serif" font-size="13" lengthAdjust="spacingAndGlyphs" textLength="46" x="137" y="778.0669">require</text><path d="M340,740.387 C340,766.571 340,794.8071 340,811.6852 " fill="none" style="stroke: #A80036; stroke-width: 1.0;"/><polygon fill="#A80036" points="340,735.181,336,744.181,340,740.181,344,744.181,340,735.181" style="stroke: #A80036; stroke-width: 1.0;"/><text fill="#000000" font-family="sans-serif" font-size="13" lengthAdjust="spacingAndGlyphs" textLength="46" x="341" y="778.0669">require</text><path d="M554.946,713.094 C559.362,744.424 565.617,788.8088 568.862,811.8293 " fill="none" style="stroke: #A80036; stroke-width: 1.0;"/><polygon fill="#A80036" points="554.199,707.794,551.4955,717.2645,554.8975,712.745,559.4171,716.1469,554.199,707.794" style="stroke: #A80036; stroke-width: 1.0;"/><text fill="#000000" font-family="sans-serif" font-size="13" lengthAdjust="spacingAndGlyphs" textLength="46" x="565" y="778.0669">require</text><path d="M209.604,108.066 C221.155,126.043 236.438,149.828 252.464,174.769 " fill="none" style="stroke: #A80036; stroke-width: 1.0;"/><polygon fill="none" points="203.598,111.668,198.675,91.058,215.376,104.1,203.598,111.668" style="stroke: #A80036; stroke-width: 1.0;"/><path d="M340,111.28 C340,128.831 340,151.287 340,174.769 " fill="none" style="stroke: #A80036; stroke-width: 1.0;"/><polygon fill="none" points="333,111.058,340,91.058,347,111.058,333,111.058" style="stroke: #A80036; stroke-width: 1.0;"/><path d="M487.196,107.523 C472.357,128.036 451.93,156.273 431.016,185.184 " fill="none" style="stroke: #A80036; stroke-width: 1.0;"/><polygon fill="none" points="481.713,103.159,499.107,91.058,493.056,111.365,481.713,103.159" style="stroke: #A80036; stroke-width: 1.0;"/><path d="M340,469.186 C340,485.623 340,499.966 340,509.996 " fill="none" style="stroke: #A80036; stroke-width: 1.0;"/><polygon fill="none" points="333,469.062,340,449.062,347,469.062,333,469.062" style="stroke: #A80036; stroke-width: 1.0;"/></g></svg>